HIERARCHY
ROOT SpineBase
{
  OFFSET 0.000000 0.000000 0.000000
  CHANNELS 6 Xposition Yposition Zposition Zrotation Xrotation Yrotation
  JOINT SpineMid
  {
    OFFSET -0.000000 29.109272 0.000000
    CHANNELS 3 Zrotation Xrotation Yrotation
    JOINT SpineShoulder
    {
      OFFSET 0.281405 21.542367 -0.630011
      CHANNELS 3 Zrotation Xrotation Yrotation
      JOINT Neck
      {
        OFFSET 0.151183 7.102883 -0.508785
        CHANNELS 3 Zrotation Xrotation Yrotation
        JOINT Head
        {
          OFFSET -1.888771 12.139636 4.651025
          CHANNELS 3 Zrotation Xrotation Yrotation
          End Site
          {
            OFFSET 0 0 0
          }
        }
      }
      JOINT ShoulderLeft
      {
        OFFSET 8.327651 -3.412252 -10.082376
        CHANNELS 3 Zrotation Xrotation Yrotation
        JOINT ElbowLeft
        {
          OFFSET 0.103763 -23.952950 -9.104325
          CHANNELS 3 Zrotation Xrotation Yrotation
          JOINT WristLeft
          {
            OFFSET 3.884068 -25.226014 -8.189534
            CHANNELS 3 Zrotation Xrotation Yrotation
            JOINT HandLeft
            {
              OFFSET -5.098050 -0.201750 2.551826
              CHANNELS 3 Zrotation Xrotation Yrotation
              JOINT HandTipLeft
              {
                OFFSET -1.430138 -7.036958 1.724029
                CHANNELS 3 Zrotation Xrotation Yrotation
                End Site
                {
                  OFFSET 0 0 0
                }
              }
              JOINT ThumbLeft
              {
                OFFSET -1.427983 0.094952 -2.460718
                CHANNELS 3 Zrotation Xrotation Yrotation
                End Site
                {
                  OFFSET 0 0 0
                }
              }
            }
          }
        }
      }
      JOINT ShoulderRight
      {
        OFFSET 5.566328 0.003716 -6.193050
        CHANNELS 3 Zrotation Xrotation Yrotation
        JOINT ElbowRight
        {
          OFFSET 0.433808 -23.062894 -9.649496
          CHANNELS 3 Zrotation Xrotation Yrotation
          JOINT WristRight
          {
            OFFSET -2.886030 -21.992869 -4.913725
            CHANNELS 3 Zrotation Xrotation Yrotation
            JOINT HandRight
            {
              OFFSET -0.311057 -7.782301 -0.750039
              CHANNELS 3 Zrotation Xrotation Yrotation
              JOINT HandTipRight
              {
                OFFSET -1.022285 -5.044079 0.042090
                CHANNELS 3 Zrotation Xrotation Yrotation
                End Site
                {
                  OFFSET 0 0 0
                }
              }
              JOINT ThumbRight
              {
                OFFSET 2.371629 1.028699 1.016273
                CHANNELS 3 Zrotation Xrotation Yrotation
                End Site
                {
                  OFFSET 0 0 0
                }
              }
            }
          }
        }
      }
    }
  }
  JOINT HipLeft
  {
    OFFSET 2.333221 0.304668 0.591480
    CHANNELS 3 Zrotation Xrotation Yrotation
    JOINT KneeLeft
    {
      OFFSET -10.723062 -33.114352 5.797334
      CHANNELS 3 Zrotation Xrotation Yrotation
      JOINT AnkleLeft
      {
        OFFSET -2.858667 -24.114007 2.025772
        CHANNELS 3 Zrotation Xrotation Yrotation
        JOINT FootLeft
        {
          OFFSET 0.920584 0.065542 -0.212495
          CHANNELS 3 Zrotation Xrotation Yrotation
          End Site
          {
            OFFSET 0 0 0
          }
        }
      }
    }
  }
  JOINT HipRight
  {
    OFFSET -1.098528 1.394379 -6.419375
    CHANNELS 3 Zrotation Xrotation Yrotation
    JOINT KneeRight
    {
      OFFSET 11.201924 -25.207165 -1.889908
      CHANNELS 3 Zrotation Xrotation Yrotation
      JOINT AnkleRight
      {
        OFFSET -0.153369 -24.996109 6.250861
        CHANNELS 3 Zrotation Xrotation Yrotation
        JOINT FootRight
        {
          OFFSET 4.818023 -3.062765 1.915950
          CHANNELS 3 Zrotation Xrotation Yrotation
          End Site
          {
            OFFSET 0 0 0
          }
        }
      }
    }
  }
}
MOTION
Frames: 13
Frame Time: 0.033333
-34.766497 58.896839 325.156958 9.378776 8.786346 -1.950994 1.654835 0.805476 1.481494 -0.377768 -0.129023 0.348154 -14.571805 1.281497 1.393684 0.000000 0.000000 0.000000 -2.616792 1.062767 -3.743613 5.706983 4.000148 0.763103 72.580973 5.472812 -34.049667 -55.082709 -9.325440 13.847136 0.000000 0.000000 0.000000 0.000000 0.000000 0.000000 -25.488909 5.206144 4.378018 22.657094 -13.101625 -4.553569 15.794566 -0.156794 0.272274 -11.765033 17.667360 -3.926371 0.000000 0.000000 0.000000 0.000000 0.000000 0.000000 -19.506221 -38.583364 3.946973 14.204390 21.491994 -10.501949 -19.905997 -22.675781 73.734841 0.000000 0.000000 0.000000 -45.346052 3.366639 8.167683 59.551325 -8.792721 7.325632 -58.241968 27.322150 69.932763 0.000000 0.000000 0.000000
-38.105184 58.979008 326.939933 10.090072 11.209322 -8.346113 1.349655 0.740541 7.618459 -0.352028 -0.117014 0.344908 -14.717058 -3.746744 0.386373 0.000000 0.000000 0.000000 -5.514878 4.469264 -3.223426 6.602954 0.549819 1.446456 75.870578 -6.975988 -45.089736 -63.155610 -12.573284 24.170297 0.000000 0.000000 0.000000 0.000000 0.000000 0.000000 -27.730128 6.819798 4.767495 24.471420 -17.980489 -3.756123 18.808420 7.969098 -2.497955 -15.990714 11.894505 -4.141428 0.000000 0.000000 0.000000 0.000000 0.000000 0.000000 -10.556742 -41.978089 13.784788 9.409098 22.598511 -9.888758 -18.606041 -22.333861 71.932249 0.000000 0.000000 0.000000 -45.734493 -1.063851 12.371578 62.783560 -7.865751 9.232972 -54.636496 27.658938 66.806213 0.000000 0.000000 0.000000
-41.377210 58.717559 329.423316 10.108471 13.369992 -12.802250 1.166474 0.721605 11.866644 -0.142022 0.078611 0.331853 -13.461325 -13.644595 -1.600848 0.000000 0.000000 0.000000 -10.609736 7.504436 -1.802277 13.703191 -2.078011 1.209268 62.080150 -21.514518 -59.826753 -64.819886 -15.994983 42.884921 0.000000 0.000000 0.000000 0.000000 0.000000 0.000000 -29.316726 9.521502 5.288374 27.147701 -24.200726 -2.137849 19.729530 18.000716 -5.959199 -16.771791 0.302634 -3.466725 0.000000 0.000000 0.000000 0.000000 0.000000 0.000000 -1.835258 -41.486992 21.565126 -0.754896 22.615447 -6.947069 -20.418280 -28.791561 67.050568 0.000000 0.000000 0.000000 -43.199435 -3.478016 15.942746 62.969824 -8.964324 11.020559 -54.956298 28.246177 65.920680 0.000000 0.000000 0.000000
-44.850692 57.333800 331.316087 9.644167 15.490787 -15.164290 0.654685 0.377831 14.021372 0.090541 0.282120 0.294754 -10.101671 -21.012012 -2.783118 0.000000 0.000000 0.000000 -16.037933 15.005481 0.493787 22.725043 -11.465938 3.030028 40.618600 -26.326998 -73.378940 -57.646280 -12.930009 62.076892 0.000000 0.000000 0.000000 0.000000 0.000000 0.000000 -30.117951 14.559150 6.494118 29.852971 -31.860837 0.526916 25.402578 32.708791 -13.060873 -16.176387 -15.338919 -2.456879 0.000000 0.000000 0.000000 0.000000 0.000000 0.000000 6.958684 -39.578109 27.691367 -20.627759 21.565051 -1.507458 -10.780545 -21.260270 47.412252 0.000000 0.000000 0.000000 -37.268840 -3.251351 19.199613 59.337667 -8.287150 11.652025 -59.559849 25.920779 62.232896 0.000000 0.000000 0.000000
-48.877219 54.087100 333.706043 7.403246 16.311332 -21.630430 0.255248 0.017842 20.613172 0.380481 0.403496 0.231804 -4.122173 -23.443560 -2.603907 0.000000 0.000000 0.000000 -22.786965 20.573749 4.785795 33.198962 -13.700577 5.289374 13.514663 -29.270244 -87.178519 -50.929521 -0.434403 83.840445 0.000000 0.000000 0.000000 0.000000 0.000000 0.000000 -29.243332 20.938010 8.612465 32.644863 -39.349048 3.985522 26.294476 43.212578 -17.730389 -11.473813 -26.392788 0.289642 0.000000 0.000000 0.000000 0.000000 0.000000 0.000000 19.283123 -33.464528 38.243913 -47.749281 30.219967 7.440594 2.526612 -22.511070 17.626948 0.000000 0.000000 0.000000 -25.711027 1.304406 30.414099 49.073250 -11.087436 11.789841 -66.399695 23.522771 57.532737 0.000000 0.000000 0.000000
-52.115949 49.800922 335.615626 5.006157 16.849326 -23.263276 0.587342 0.519727 22.557580 0.134259 0.201045 0.114355 1.091066 -23.156117 -1.990025 0.000000 0.000000 0.000000 -34.158444 23.114117 11.016130 47.358605 -10.016956 7.715034 -4.307931 -33.816399 -94.628043 -58.195030 7.835916 90.607702 0.000000 0.000000 0.000000 0.000000 0.000000 0.000000 -27.712651 26.591003 10.204272 34.734691 -45.488790 7.657613 25.753672 45.340967 -18.405770 -2.205452 -23.739298 4.335789 0.000000 0.000000 0.000000 0.000000 0.000000 0.000000 26.747180 -29.748482 42.541860 -71.720229 39.170878 19.634120 20.511188 -27.284552 5.629072 0.000000 0.000000 0.000000 -18.924076 9.048054 36.892363 40.116440 -13.320091 10.121978 -57.840147 19.006908 47.951370 0.000000 0.000000 0.000000
-54.617279 45.818182 337.272529 2.893248 17.145989 -30.050307 0.387017 0.291297 29.553852 0.213143 0.112245 0.039398 5.200607 -19.689570 -1.193512 0.000000 0.000000 0.000000 -44.049696 20.990020 16.020067 56.639633 1.903464 7.707607 -5.047953 -46.659655 -98.543362 -68.082230 3.292230 85.518987 0.000000 0.000000 0.000000 0.000000 0.000000 0.000000 -22.318014 28.804587 9.491726 31.902052 -46.732147 8.454616 22.631459 38.874415 -14.245095 5.951190 -12.569085 5.007642 0.000000 0.000000 0.000000 0.000000 0.000000 0.000000 35.316860 -23.806286 51.294181 -88.029816 43.883048 29.973502 32.606527 -28.466532 -2.929686 0.000000 0.000000 0.000000 -16.392624 17.357688 49.147005 30.304647 -17.579512 7.207791 -51.267879 14.675537 44.451964 0.000000 0.000000 0.000000
-56.232315 42.032408 338.346412 1.320517 17.248577 -31.164594 0.352816 0.198164 30.847290 0.017151 -0.137342 -0.063681 6.095851 -15.025115 -0.389498 0.000000 0.000000 0.000000 -46.586536 16.097590 16.517629 55.362378 22.270890 5.947344 35.712196 -66.993991 -70.595464 -78.312555 -6.682742 67.632652 0.000000 0.000000 0.000000 0.000000 0.000000 0.000000 -19.341473 31.973332 9.764326 30.786647 -48.760436 9.531980 18.161053 26.446415 -8.129908 11.267017 -2.569142 2.855059 0.000000 0.000000 0.000000 0.000000 0.000000 0.000000 40.485055 -21.896180 54.519351 -94.051776 47.032168 35.394012 37.110668 -29.095395 -2.656928 0.000000 0.000000 0.000000 -15.747393 28.737663 56.885390 16.045822 -24.426864 0.111793 -41.221641 10.617604 45.222166 0.000000 0.000000 0.000000
-58.136637 38.973776 339.561015 -0.690013 16.913534 -26.203524 0.542376 0.198139 26.164873 -0.006832 -0.365398 -0.140275 6.739770 -10.137170 0.423990 0.000000 0.000000 0.000000 -41.797390 8.825580 13.367832 43.547720 53.337098 7.650296 106.695331 -68.621922 8.170954 -84.227369 3.677873 51.924819 0.000000 0.000000 0.000000 0.000000 0.000000 0.000000 -19.854475 34.795347 11.829266 32.730357 -50.884285 10.838223 15.112483 18.741801 -4.918184 12.856990 9.544546 -3.691963 0.000000 0.000000 0.000000 0.000000 0.000000 0.000000 43.397106 -23.780433 52.277236 -92.125049 54.186659 37.634187 37.747926 -33.448966 11.778346 0.000000 0.000000 0.000000 -7.742951 37.544280 53.463019 6.205087 -21.093981 -6.124267 -33.345731 4.745401 45.934741 0.000000 0.000000 0.000000
-60.538533 36.760638 341.437930 -3.528839 14.863941 -18.776480 0.689188 0.608308 19.077775 0.393717 -0.019813 -0.158340 7.033588 -4.882589 1.370620 0.000000 0.000000 0.000000 -28.919665 0.225241 8.377878 -45.870451 74.951262 77.869335 -164.510707 -75.267842 91.781066 -84.007339 15.934836 72.475460 0.000000 0.000000 0.000000 0.000000 0.000000 0.000000 -22.604687 36.215925 15.287957 36.966996 -51.935721 12.075002 10.578708 15.874041 -3.119997 16.810623 13.536220 -5.663698 0.000000 0.000000 0.000000 0.000000 0.000000 0.000000 45.056657 -25.167300 46.444604 -70.778306 60.102998 23.151444 24.182246 -35.870180 27.637009 0.000000 0.000000 0.000000 3.353389 43.764702 44.193287 1.208730 -15.391710 -10.401968 -31.551776 0.004775 48.031199 0.000000 0.000000 0.000000
-62.857786 35.795829 342.790156 -6.572403 13.396047 -13.216907 0.967185 0.418502 13.779821 0.877276 0.524868 -0.168119 7.097487 -0.349586 2.575814 0.000000 0.000000 0.000000 -11.983333 -8.586673 4.122386 -104.371927 44.297280 109.513617 -79.178544 -71.921502 158.235517 -91.133340 25.006805 100.521585 0.000000 0.000000 0.000000 0.000000 0.000000 0.000000 -33.099720 42.716642 25.232194 51.910746 -59.209107 21.860428 2.136689 14.858628 -1.084194 21.533083 10.910566 -3.822701 0.000000 0.000000 0.000000 0.000000 0.000000 0.000000 47.721920 -27.289060 42.924859 -29.638018 54.836165 -6.264265 8.410239 -24.255564 41.375958 0.000000 0.000000 0.000000 16.690654 44.695617 33.691993 -2.738610 -7.801920 -13.687449 -30.633043 -3.705373 50.252515 0.000000 0.000000 0.000000
-64.775909 34.974334 344.668594 -8.580036 11.771127 -14.531072 1.121916 0.643352 15.192793 1.263760 1.070444 -0.150855 7.559449 1.113679 3.041057 0.000000 0.000000 0.000000 5.825726 -14.453988 1.477523 -122.398006 19.537476 102.042251 -130.336892 -87.183799 87.151053 -94.768842 9.854406 75.774216 0.000000 0.000000 0.000000 0.000000 0.000000 0.000000 -48.934533 47.891385 39.456668 75.928412 -65.673049 40.801361 -4.113579 14.797014 0.254004 17.974986 0.294863 0.723696 0.000000 0.000000 0.000000 0.000000 0.000000 0.000000 53.255738 -19.850103 42.670976 -24.626901 39.327477 -10.437988 -2.279332 -12.066945 45.653644 0.000000 0.000000 0.000000 12.411931 50.080671 39.094723 -0.637499 -9.902843 -13.878893 -30.528880 -6.590741 47.696723 0.000000 0.000000 0.000000
-66.754535 35.547674 347.232210 -9.825677 11.459235 -19.341464 1.051077 0.937967 20.092283 1.475979 1.546065 -0.135647 9.981351 -3.178149 2.425203 0.000000 0.000000 0.000000 11.899628 -16.377614 1.133176 -131.180391 7.505924 100.020903 -11.500751 -77.714285 -159.050821 -84.053480 -17.523735 31.955748 0.000000 0.000000 0.000000 0.000000 0.000000 0.000000 -60.580337 47.369554 48.910489 98.785416 -65.990499 58.260555 -10.032954 18.936856 1.337349 16.780574 -13.750266 5.243655 0.000000 0.000000 0.000000 0.000000 0.000000 0.000000 54.756956 -12.966188 43.657924 -20.340913 31.147540 -11.603237 -13.053338 -11.978135 53.981951 0.000000 0.000000 0.000000 -0.307679 51.023820 51.795990 4.386357 -12.733110 -11.830800 -32.669536 -8.893385 41.404209 0.000000 0.000000 0.000000
